# xmcd CD database file
#
# Track frame offsets:
#	150
#	17714
#	33034
#	47095
#	62434
#	79041
#	95331
#	110933
#	128411
#	146974
#
# Disc length: 2202 seconds
#
# Revision: 1
# Processed by: cddbd v1.5.1PL0 Copyright (c) Steve Scherf et al.
# Submitted via: CDex 1.51
#
DISCID=7d08980a
DTITLE=Lorraine Davies - A Time For Me
DYEAR=2004
DGENRE=Country
TTITLE0=Sand Castles
TTITLE1=You Won't Catch Me Falling
TTITLE2=Smoke Screen
TTITLE3=More Than I Needed to Know
TTITLE4=No Resistance
TTITLE5=You Came A Long Way for Nothing
TTITLE6=Me and My Man
TTITLE7=Fly Like You've Got Wings
TTITLE8=I Love Being Wrong
TTITLE9=Mom's Night Out
EXTD=YEAR: 2004
EXTT0=
EXTT1=
EXTT2=
EXTT3=
EXTT4=
EXTT5=
EXTT6=
EXTT7=
EXTT8=
EXTT9=
PLAYORDER=
